<?xml version="1.0" encoding="UTF-8" standalone="no"?>
<!-- Created with Inkscape (http://www.inkscape.org/) -->

<svg
   width="169.4664mm"
   height="169.46638mm"
   viewBox="0 0 169.4664 169.46638"
   version="1.1"
   id="svg5"
   xml:space="preserve"
   inkscape:export-filename="icon2.svg"
   inkscape:export-xdpi="96"
   inkscape:export-ydpi="96"
   xmlns:inkscape="http://www.inkscape.org/namespaces/inkscape"
   xmlns:sodipodi="http://sodipodi.sourceforge.net/DTD/sodipodi-0.dtd"
   xmlns="http://www.w3.org/2000/svg"
   xmlns:svg="http://www.w3.org/2000/svg"><sodipodi:namedview
     id="namedview7"
     pagecolor="#505050"
     bordercolor="#ffffff"
     borderopacity="1"
     inkscape:showpageshadow="0"
     inkscape:pageopacity="0"
     inkscape:pagecheckerboard="1"
     inkscape:deskcolor="#505050"
     inkscape:document-units="mm"
     showgrid="false" /><defs
     id="defs2" /><g
     inkscape:label="Layer 1"
     inkscape:groupmode="layer"
     id="layer1"
     style="display:inline"
     transform="translate(-21.978577,-59.284334)"><circle
       style="fill:#000080;stroke-width:0.264583"
       id="path621"
       cx="106.71178"
       cy="144.01753"
       r="84.7332" /><a
       id="a511"
       transform="matrix(0.59560902,0.27869605,-0.27869605,0.59560902,111.11716,52.928026)"><path
         d="M 116.88894,30.538964 66.180556,12.386546 c -2.46277,-0.880719 -5.14796,-0.880719 -7.610738,0 L 8.0013437,30.538964 c -1.724121,0.6278 -2.878915,2.27802 -2.878915,4.14349 0,1.86546 1.154794,3.52465 2.878915,4.14169 l 10.7658903,3.85828 c -2.13273,2.83408 -3.63407,6.12734 -4.403575,9.6771 -2.057394,0.86996 -3.501336,2.91479 -3.501336,5.2825 0,1.78529 0.863495,3.31659 2.141699,4.36949 l -4.4538003,26.72639 c -0.292376,1.74708 1.056499,3.34349 2.8304853,3.34349 h 10.443021 c 1.773448,0 3.122861,-1.59264 2.830485,-3.3417 l -4.453799,-26.72638 c 1.27892,-1.05291 2.141698,-2.73901 2.141698,-4.37129 0,-1.84573 -0.928069,-3.41344 -2.281608,-4.46456 0.762688,-3.18564 2.310307,-6.06635 4.47353,-8.43585 l 34.188254,12.23853 c 2.462768,0.88072 5.147968,0.88072 7.610738,0 l 50.708384,-18.15241 c 1.73093,-0.6296 2.87891,-2.27982 2.87891,-4.14528 0,-1.86547 -1.14798,-3.51569 -3.03138,-4.14349 z m -48.789104,31.83847 c -1.68609,0.66368 -3.62331,1.00449 -5.57846,1.00449 -1.95874,0 -3.890568,-0.33489 -5.739888,-0.99641 l -26.044784,-9.31747 -2.654697,25.61428 c 0,7.40806 15.264527,13.39907 34.439369,13.39907 18.85196,0 34.43937,-5.99101 34.43937,-13.39369 l -2.65112,-25.63221 z"
         id="path312"
         style="stroke-width:0.179371" /></a><path
       style="fill:#c8ab37;stroke-width:0.300251"
       d="m 72.509443,201.26246 c -0.405529,-0.40552 -0.736975,-0.94962 -0.736975,-1.20956 0,-2.84024 1.89643,-16.49157 3.144886,-22.63799 l 0.694011,-3.41687 -1.582726,-2.43804 c -2.803967,-4.3193 -4.556122,-8.44888 -5.748016,-13.54724 -0.875847,-3.74653 -0.785276,-12.49939 0.169358,-16.36364 1.895948,-7.67467 5.019477,-13.18401 10.646524,-18.77848 4.809174,-4.78138 9.123446,-7.46011 15.268893,-9.48045 l 2.926456,-0.96209 1.794258,-3.38691 c 0.986858,-1.86278 2.685378,-4.88817 3.774538,-6.72298 3.03863,-5.119144 3.84703,-5.147974 6.72595,-0.24016 0.99708,1.69982 2.65501,4.72924 3.68429,6.73199 l 1.87142,3.64137 2.36892,0.6845 c 1.30289,0.37644 3.95042,1.46426 5.88337,2.41734 10.517,5.18554 17.87863,14.44016 20.75801,26.09579 0.95462,3.86424 1.04519,12.6171 0.16953,16.36363 -1.20259,5.14424 -2.94113,9.22384 -5.82088,13.65906 l -1.65552,2.54972 1.23744,6.15752 c 0.68059,3.38662 1.5863,8.24533 2.01273,10.79717 0.84579,5.0613 0.77491,5.79034 -0.61424,6.31852 -1.40588,0.5345 -2.09952,-0.12964 -4.0424,-3.87047 -3.07936,-5.92916 -6.23659,-11.28692 -6.70731,-11.38224 -0.24722,-0.0503 -1.37552,0.47745 -2.50747,1.17238 -10.36785,6.36473 -23.25323,7.31307 -34.717926,2.5552 -1.921152,-0.7973 -2.5636,-0.94813 -2.893424,-0.67934 -0.546634,0.4455 -6.870102,7.99798 -10.635247,12.70228 -3.519086,4.39687 -4.033559,4.70451 -5.46816,3.26991 z m 38.295577,-21.01957 c 1.56881,-0.23933 3.79818,-0.75999 4.95414,-1.15692 2.31183,-0.79381 6.48712,-2.85324 7.64225,-3.76955 l 0.73652,-0.58419 -1.06538,-1.60409 c -2.99901,-4.51541 -7.49238,-9.22645 -9.40103,-9.85634 -0.93214,-0.30748 -1.25436,-0.26135 -2.63968,0.3781 -0.86786,0.40096 -2.72639,1.65498 -4.13008,2.78722 -2.5043,2.02009 -12.010006,11.35976 -12.010006,11.80032 0,0.45821 4.50399,1.66349 8.407046,2.24964 1.74872,0.2626 4.84435,0.16205 7.50622,-0.24431 z m 24.81823,-21.96961 c 0.75912,-2.47664 0.81609,-3.03985 0.81609,-8.06704 0,-5.02469 -0.0573,-5.59439 -0.81908,-8.10676 -2.0709,-6.83216 -5.9056,-12.3796 -11.30395,-16.35279 -1.92967,-1.42026 -3.90326,-2.57099 -3.90326,-2.27594 0,0.0839 1.07295,2.82328 2.38435,6.08779 3.99043,9.93338 7.85825,21.25172 10.23666,29.95546 0.36107,1.32113 0.72891,2.52264 0.81754,2.6701 0.24597,0.40885 0.86993,-0.96883 1.77165,-3.91082 z m -56.059016,-0.56076 c 2.207972,-8.184 6.903757,-21.57124 10.569432,-30.1323 0.810434,-1.89269 1.432273,-3.56492 1.381914,-3.71599 -0.144179,-0.43271 -3.76689,2.12308 -6.013795,4.24272 -4.034681,3.80611 -7.021884,8.71937 -8.507258,13.99253 -0.920377,3.26717 -1.280367,9.31059 -0.754966,12.67208 0.423063,2.70657 1.808344,7.15368 2.11972,6.80487 0.127974,-0.14335 0.670286,-1.88226 1.204953,-3.86391 z"
       id="path722" /></g><g
     inkscape:label="Layer 1 copy"
     inkscape:groupmode="layer"
     id="g733"
     style="display:inline"
     transform="translate(-21.978577,-59.284334)"><circle
       style="fill:#0000ff;fill-opacity:1;stroke-width:0.264583"
       id="circle725"
       cx="106.71178"
       cy="144.01753"
       r="84.7332" /><a
       id="a729"
       transform="matrix(1.3004801,0.05235526,-0.05235526,1.3004801,28.690388,68.81273)"
       inkscape:label="a729"><path
         d="M 116.88894,30.538964 66.180556,12.386546 c -2.46277,-0.880719 -5.14796,-0.880719 -7.610738,0 L 8.0013437,30.538964 c -1.724121,0.6278 -2.878915,2.27802 -2.878915,4.14349 0,1.86546 1.154794,3.52465 2.878915,4.14169 l 10.7658903,3.85828 c -2.13273,2.83408 -3.63407,6.12734 -4.403575,9.6771 -2.057394,0.86996 -3.501336,2.91479 -3.501336,5.2825 0,1.78529 0.863495,3.31659 2.141699,4.36949 l -4.4538003,26.72639 c -0.292376,1.74708 1.056499,3.34349 2.8304853,3.34349 h 10.443021 c 1.773448,0 3.122861,-1.59264 2.830485,-3.3417 l -4.453799,-26.72638 c 1.27892,-1.05291 2.141698,-2.73901 2.141698,-4.37129 0,-1.84573 -0.928069,-3.41344 -2.281608,-4.46456 0.762688,-3.18564 2.310307,-6.06635 4.47353,-8.43585 l 34.188254,12.23853 c 2.462768,0.88072 5.147968,0.88072 7.610738,0 l 50.708384,-18.15241 c 1.73093,-0.6296 2.87891,-2.27982 2.87891,-4.14528 0,-1.86547 -1.14798,-3.51569 -3.03138,-4.14349 z m -48.789104,31.83847 c -1.68609,0.66368 -3.62331,1.00449 -5.57846,1.00449 -1.95874,0 -3.890568,-0.33489 -5.739888,-0.99641 l -26.044784,-9.31747 -2.654697,25.61428 c 0,7.40806 15.264527,13.39907 34.439369,13.39907 18.85196,0 34.43937,-5.99101 34.43937,-13.39369 l -2.65112,-25.63221 z"
         id="path727"
         style="stroke-width:0.179371" /></a><path
       style="fill:#c8ab37;stroke-width:0.142036"
       d="m 92.202858,139.69946 c -0.191837,-0.19183 -0.348632,-0.44922 -0.348632,-0.5722 0,-1.34359 0.897122,-7.80144 1.487708,-10.70905 l 0.328304,-1.61638 -0.748727,-1.15334 c -1.326437,-2.04327 -2.155297,-3.99679 -2.719127,-6.40861 -0.414335,-1.77232 -0.371482,-5.91293 0.08002,-7.74094 0.896896,-3.63057 2.374497,-6.23679 5.036416,-8.8833 2.275004,-2.26186 4.315905,-3.529035 7.22306,-4.484794 l 1.38439,-0.455123 0.84878,-1.602201 c 0.46684,-0.881191 1.27032,-2.312374 1.78556,-3.180352 1.43744,-2.421635 1.81986,-2.435287 3.18175,-0.113581 0.47168,0.804114 1.25598,2.237194 1.74288,3.184597 l 0.88529,1.722592 1.12065,0.323818 c 0.61633,0.178042 1.86876,0.692669 2.78316,1.143529 4.97515,2.453055 8.45761,6.831015 9.81973,12.344795 0.45158,1.82802 0.49443,5.96862 0.0802,7.74094 -0.56889,2.43351 -1.39133,4.3634 -2.75361,6.46152 l -0.78315,1.20616 0.58539,2.91286 c 0.32195,1.60207 0.7504,3.9005 0.95213,5.10767 0.40011,2.39428 0.36657,2.73916 -0.29057,2.98902 -0.66508,0.25286 -0.9932,-0.0613 -1.91228,-1.83094 -1.45673,-2.80484 -2.95027,-5.33937 -3.17294,-5.38446 -0.11699,-0.0238 -0.65069,0.22585 -1.18618,0.5546 -4.90459,3.01089 -11.00009,3.45951 -16.42357,1.20875 -0.90882,-0.37716 -1.212718,-0.44851 -1.368748,-0.32137 -0.258587,0.21076 -3.24995,3.78352 -5.031073,6.00892 -1.664737,2.07996 -1.908112,2.2255 -2.586756,1.54685 z M 110.31884,129.756 c 0.74215,-0.1132 1.79678,-0.35951 2.34359,-0.54729 1.09363,-0.37552 3.06878,-1.34974 3.61523,-1.78321 l 0.34843,-0.27635 -0.50399,-0.75883 c -1.41871,-2.13606 -3.54433,-4.36464 -4.44724,-4.66261 -0.44096,-0.14544 -0.59337,-0.12363 -1.24871,0.17882 -0.41055,0.18967 -1.28974,0.78289 -1.95377,1.31851 -1.18468,0.95561 -5.68142,5.37382 -5.68142,5.58222 0,0.21676 2.13064,0.78694 3.97702,1.06423 0.82724,0.1242 2.29165,0.0766 3.55086,-0.11567 z m 11.74045,-10.39288 c 0.3591,-1.1716 0.38605,-1.43803 0.38605,-3.81616 0,-2.37697 -0.0271,-2.64648 -0.38747,-3.83497 -0.97965,-3.232 -2.79368,-5.85627 -5.34741,-7.7358 -0.91284,-0.67187 -1.84647,-1.21623 -1.84647,-1.07666 0,0.0396 0.50758,1.33556 1.12793,2.87987 1.8877,4.69907 3.71742,10.05328 4.84254,14.17064 0.17084,0.62499 0.34481,1.19336 0.38674,1.26312 0.11642,0.19342 0.41153,-0.45832 0.83809,-1.85004 z m -26.51911,-0.26528 c 1.044493,-3.87149 3.265854,-10.20443 4.99993,-14.2543 0.38339,-0.89534 0.67755,-1.68641 0.65373,-1.75787 -0.0682,-0.2047 -1.781957,1.00433 -2.844862,2.00705 -1.908642,1.80051 -3.321755,4.12477 -4.024423,6.61927 -0.435402,1.54555 -0.605698,4.40445 -0.357146,5.99462 0.200142,1.28036 0.855445,3.3841 1.002759,3.2191 0.06049,-0.0679 0.317079,-0.89044 0.570012,-1.82787 z"
       id="path731" /></g></svg>
